<svg width="56" height="56" viewBox="0 0 56 56" fill="none" xmlns="http://www.w3.org/2000/svg">
<g id="Group 11">
<path id="Vector" d="M49.6667 2H6.33333C5.18406 2 4.08186 2.45655 3.2692 3.2692C2.45655 4.08186 2 5.18406 2 6.33333V49.6667C2 50.8159 2.45655 51.9181 3.2692 52.7308C4.08186 53.5435 5.18406 54 6.33333 54H49.6667C50.8159 54 51.9181 53.5435 52.7308 52.7308C53.5435 51.9181 54 50.8159 54 49.6667V6.33333C54 5.18406 53.5435 4.08186 52.7308 3.2692C51.9181 2.45655 50.8159 2 49.6667 2Z" stroke="white" stroke-width="4" stroke-linejoin="round"/>
<path id="Vector_2" d="M12.7466 36.4283L20.9178 28.2571L27.256 34.5794L42.4444 19.3333" stroke="white" stroke-width="4" stroke-linecap="round" stroke-linejoin="round"/>
<path id="Vector_3" d="M30.8889 19.3333H42.4445V30.8889" stroke="white" stroke-width="4" stroke-linecap="round" stroke-linejoin="round"/>
</g>
</svg>
