<svg width="46" height="52" viewBox="0 0 46 52" fill="none" xmlns="http://www.w3.org/2000/svg">
<path id="Vector" d="M30.7041 45.4937C30.3309 47.3299 29.3336 48.9807 27.8813 50.1665C26.429 51.3522 24.611 52 22.7354 52C20.8597 52 19.0417 51.3522 17.5894 50.1665C16.1371 48.9807 15.1399 47.3299 14.7666 45.4937H30.7041ZM22.7289 0C32.9712 0 41.4115 7.58661 42.1922 17.3988L42.2344 18.1234L42.2507 18.8512L42.2474 30.5674L45.3504 38.9728L45.4317 39.2489L45.4837 39.5284L45.5 39.8175C45.5 40.841 44.8625 41.7345 43.8022 42.1146L43.4314 42.2219L43.0606 42.2543H2.41014C2.12282 42.2503 1.83817 42.1987 1.56773 42.1016C0.634249 41.7605 0.0195153 40.893 0 39.7753L0.0130101 39.3952L0.123597 38.9728L3.21352 30.5771L3.22003 18.8219L3.23304 18.0909C3.63311 7.96351 12.2329 0 22.7289 0Z" fill="white"/>
</svg>
