<svg width="120" height="120" viewBox="0 0 120 120" xmlns="http://www.w3.org/2000/svg"><path fill-rule="evenodd" d="M9.62 59.9a63.48 63.48 0 0 0 11.12 12.58 60.78 60.78 0 0 0 10.33 7.22A34.84 34.84 0 0 1 25 60c0-7.64 2.45-14.7 6.6-20.46A56.06 56.06 0 0 0 9.62 59.9ZM95 60c0 7.3-2.24 14.09-6.07 19.7a60.78 60.78 0 0 0 10.33-7.23 63.48 63.48 0 0 0 11.12-12.57A56.08 56.08 0 0 0 88.4 39.54 34.84 34.84 0 0 1 95 60Zm10.28-18.49C95.96 33.21 81.3 25 60 25s-35.96 8.22-45.28 16.51A64.05 64.05 0 0 0 4.63 52.88a51.1 51.1 0 0 0-3.22 5.36l-.02.03v.01L5 60l-3.62-1.71-.86 1.83.96 1.77L5 60l-3.52 1.9v.01l.02.03a12.33 12.33 0 0 0 .24.41A57.6 57.6 0 0 0 5 67.23c2.3 3.1 5.77 7.2 10.51 11.3A66.73 66.73 0 0 0 60 95a66.73 66.73 0 0 0 44.49-16.47 71.5 71.5 0 0 0 10.52-11.3 57.25 57.25 0 0 0 3.43-5.2l.06-.09.01-.03.01-.01L115 60l3.52 1.9.96-1.78-.86-1.83L115 60c3.62-1.71 3.61-1.71 3.61-1.72v-.01l-.02-.03-.05-.1a25.61 25.61 0 0 0-.77-1.44 50.82 50.82 0 0 0-2.4-3.82 64 64 0 0 0-10.09-11.37ZM33 60a27 27 0 1 1 54 0 27 27 0 0 1-54 0ZM8.61 61.72ZM71 57a5 5 0 1 0 0-10 5 5 0 0 0 0 10Z" fill="url(#am3coymly)"/><defs><linearGradient id="am3coymly" x1="119.48" y1="33.56" x2="68.64" y2="123.22" gradientUnits="userSpaceOnUse"><stop stop-color="#00BCE6"/><stop offset=".5" stop-color="#2962FF"/><stop offset="1" stop-color="#D500F9"/></linearGradient></defs></svg>